<?xml version="1.0" encoding="UTF-8" standalone="no"?>
<svg width="356px" height="225px" viewBox="0 0 356 225" version="1.1" xmlns="http://www.w3.org/2000/svg" xmlns:xlink="http://www.w3.org/1999/xlink" xmlns:sketch="http://www.bohemiancoding.com/sketch/ns">
    <!-- Generator: Sketch 3.4.4 (17249) - http://www.bohemiancoding.com/sketch -->
    <title>Rectangle 125 + logo-fcfm-color-full</title>
    <desc>Created with Sketch.</desc>
    <defs></defs>
    <g id="Guide-Lines" stroke="none" stroke-width="1" fill="none" fill-rule="evenodd" sketch:type="MSPage">
        <g id="Branding" sketch:type="MSArtboardGroup" transform="translate(-358.000000, -672.000000)">
            <g id="Rectangle-125-+-logo-fcfm-color-full" sketch:type="MSLayerGroup" transform="translate(358.000000, 672.000000)">
                <rect id="Rectangle-125" fill="#FAFAFA" sketch:type="MSShapeGroup" x="0" y="0" width="356" height="225" rx="2"></rect>
                <g id="logo-fcfm-color-full" transform="translate(78.000000, 78.000000)" sketch:type="MSShapeGroup">
                    <path d="M28.7803571,35.2357143 L66.4464286,0.560714286 L75.2857143,8.69821429 L46.4571429,35.2357143 L28.7803571,35.2357143" id="Fill-1" fill="#00C4FF"></path>
                    <path d="M28.7803571,35.2357143 L66.4464286,69.9125 L75.2857143,61.775 L46.4571429,35.2357143 L28.7803571,35.2357143" id="Fill-2" fill="#002D4A"></path>
                    <path d="M160.992857,55.5696429 L136.1625,30.7375 L136.1625,68.6625 L123.6625,68.6625 L123.6625,0.560714286 L160.992857,37.8910714 L160.992857,55.5696429" id="Fill-3" fill="#00C4FF"></path>
                    <path d="M185.823214,30.7375 L185.823214,68.6625 L198.323214,68.6625 L198.323214,0.560714286 L160.992857,37.8910714 L160.992857,55.5696429 L185.823214,30.7375 Z" id="Fill-4" fill="#002D4A"></path>
                    <path d="M77.7482143,0.730357143 L77.7482143,69.7339286 L90.2482143,69.7339286 L90.2482143,44.9446429 L101.3875,44.9446429 L101.3875,32.4446429 L90.2482143,32.4446429 L90.2482143,13.2303571 L77.7482143,0.730357143" id="Fill-5" fill="#002D4A"></path>
                    <path d="M90.2482143,13.2303571 L119.703571,13.2303571 L119.703571,0.730357143 L77.7482143,0.730357143 L90.2482143,13.2303571" id="Fill-6" fill="#00C4FF"></path>
                    <path d="M0.823214286,0.730357143 L0.823214286,69.7339286 L13.3232143,69.7339286 L13.3232143,44.9446429 L24.4625,44.9446429 L24.4625,32.4446429 L13.3232143,32.4446429 L13.3232143,13.2303571 L0.823214286,0.730357143" id="Fill-7" fill="#002D4A"></path>
                    <path d="M13.3232143,13.2303571 L42.7785714,13.2303571 L42.7785714,0.730357143 L0.823214286,0.730357143 L13.3232143,13.2303571" id="Fill-8" fill="#00C4FF"></path>
                </g>
            </g>
        </g>
    </g>
</svg>